<?xml version="1.0" encoding="UTF-8"?>
<!DOCTYPE svg PUBLIC "-//W3C//DTD SVG 1.1//EN" "http://www.w3.org/Graphics/SVG/1.1/DTD/svg11.dtd">
<svg xmlns="http://www.w3.org/2000/svg" xml:space="preserve" width="284.21mm" height="42.7726mm" version="1.1" style="shape-rendering:geometricPrecision; text-rendering:geometricPrecision; image-rendering:optimizeQuality; fill-rule:evenodd; clip-rule:evenodd"
viewBox="0 0 28459.11 4283"
 xmlns:xlink="http://www.w3.org/1999/xlink"
 xmlns:xodm="http://www.corel.com/coreldraw/odm/2003">
 <defs>
  <style type="text/css">
   <![CDATA[
    .fil0 {fill:#FEFEFE;fill-rule:nonzero}
   ]]>
  </style>
 </defs>
 <g id="Capa_x0020_1">
  <metadata id="CorelCorpID_0Corel-Layer"/>
  <path class="fil0" d="M1768.41 4243.92l-1768.41 0 884.22 -1531.57 0 -0.85 884.2 -1531.36 884.22 1531.36 0 0.85 884.25 1531.57 -1768.46 0zm-1019.17 -433.87l2038.36 0 -509.13 -881.84 -0.36 0.22 -509.7 -882.74 -509.68 882.74 -0.35 -0.22 -509.13 881.84z"/>
  <path class="fil0" d="M3994.96 4243.92l-2449.9 0 2450.14 -4243.92 1224.76 2121.16 0 0.85 1225.06 2121.9 -2450.06 0zm-1700.66 -433.87l3401.46 0 -849.95 -1472.16 -0.36 0.22 -850.74 -1473.37 -1700.41 2945.31z"/>
  <g id="_1446936059840">
   <path class="fil0" d="M14330 4283l-1749.53 -1893.5c-136.61,-146.64 -279.99,-305.8 -430.1,-477.7 -150.2,-171.7 -293.56,-336.77 -430.08,-495.05 -3.96,65.64 -5.87,134.18 -5.87,205.54l0 165.06 0 286.62 0 274.96 0 1852.98 -561.69 0 0 -3694.22 393.35 -1.26 1604.35 1736.16c124.38,139.3 279.88,315.45 466.53,528.21 186.74,212.79 291.73,332.92 315.07,359.92 3.86,-54.08 5.96,-114.83 5.96,-182.42l0 -153.48 0 -69.41 0 -237.46 0 -231.58 0 -1748.67 561.68 0 0 3775.31 -169.68 0z"/>
   <path class="fil0" d="M9115.96 1896.85c-15.72,-38.45 -38.26,-97.37 -67.78,-176.44 -29.48,-78.95 -59.87,-170.64 -91.3,-274.76 -59.38,177.31 -116.64,327.51 -172.17,450.7l-371.37 904.22 1073.8 0 -371.18 -903.73zm960.9 2306.51l-406.53 -956.88 -1452.8 0 -399.04 954.18 -552.7 1.25 1591.62 -3746.37 204.77 0 1591.61 3746.37 -576.93 1.45z"/>
   <path class="fil0" d="M16305.99 982.47l-485.61 0 0 2744.7 485.61 0c448.49,0 817.26,-116.78 1106.01,-350.36 288.54,-233.52 432.97,-574.23 432.97,-1022.03 0,-447.73 -144.43,-788.36 -432.97,-1021.96 -288.76,-233.6 -657.52,-350.35 -1106.01,-350.35zm99.5 3219.51l-1146.8 0 0 -3694.31 1146.8 0c553.86,0 1028.78,164.95 1424.83,495.05 395.85,330.1 593.88,780.84 593.88,1352.06 0,571.31 -196.95,1022.03 -590.98,1352.13 -394.02,329.99 -870.01,495.06 -1427.72,495.06z"/>
   <polygon class="fil0" points="19126.38,507.63 19693.94,507.63 19693.94,4201.86 19126.38,4201.86 "/>
   <path class="fil0" d="M23719.62 4283l-1749.53 -1893.5c-136.61,-146.64 -279.99,-305.8 -430.1,-477.7 -150.2,-171.7 -293.56,-336.77 -430.08,-495.05 -3.96,65.64 -5.87,134.18 -5.87,205.54l0 165.06 0 286.62 0 274.96 0 1852.98 -561.69 0 0 -3694.22 393.35 -1.26 1604.35 1736.16c124.38,139.3 279.88,315.45 466.53,528.21 186.74,212.79 291.73,332.92 315.07,359.92 3.86,-54.08 5.96,-114.83 5.96,-182.42l0 -153.48 0 -69.41 0 -237.46 0 -231.58 0 -1748.67 561.68 0 0 3775.31 -169.68 0z"/>
   <path class="fil0" d="M26481.31 918.73c-370.58,0 -697.23,129.18 -980.08,387.28 -282.88,258.09 -424.12,604.78 -424.12,1040.07 0,435.37 140.39,783.13 421.21,1043.13 280.86,259.93 608.54,389.98 982.99,389.98 366.64,0 692.43,-130.05 977.22,-389.98 284.68,-260 427.09,-607.75 427.09,-1043.13 0,-435.29 -141.35,-781.99 -424.2,-1040.07 -282.88,-258.1 -609.51,-387.28 -980.11,-387.28zm1977.8 1416.69l0 21.4c-2.43,569.42 -199.47,1029.31 -590.95,1379.85 -394.11,352.68 -856.29,529.01 -1386.85,529.01 -530.53,0 -992.82,-176.33 -1386.74,-529.01 -394.02,-352.75 -590.98,-816.19 -590.98,-1390.58 0,-566.5 197.92,-1027.15 593.89,-1381.74 395.93,-354.62 857.27,-532 1383.84,-532 530.56,0 992.74,176.36 1386.85,529 391.48,350.55 588.52,808.63 590.95,1374.08z"/>
  </g>
 </g>
</svg>
