<?xml version="1.0" encoding="UTF-8"?><svg id="Capa_1" xmlns="http://www.w3.org/2000/svg" viewBox="0 0 295.64 44.94"><defs><style>.cls-1{fill:#989898;}.cls-2{fill:#1d1d1b;}.cls-3{stroke-width:4.5px;}.cls-3,.cls-4{fill:none;stroke:#1d1d1b;stroke-miterlimit:10;}.cls-4{stroke-width:2px;}</style></defs><circle class="cls-2" cx="118.44" cy="10.23" r="4.27"/><circle class="cls-1" cx="133.48" cy="10.23" r="4.27"/><circle class="cls-2" cx="148.5" cy="10.23" r="4.27"/><circle class="cls-2" cx="118.45" cy="25.1" r="4.27"/><circle class="cls-2" cx="133.5" cy="25.1" r="4.27"/><circle class="cls-2" cx="148.52" cy="25.1" r="4.27"/><circle class="cls-2" cx="118.46" cy="39.96" r="4.27"/><circle class="cls-1" cx="133.51" cy="39.96" r="4.27"/><circle class="cls-2" cx="148.53" cy="39.96" r="4.27"/><polyline class="cls-4" points="118.46 39.96 118.44 10.23 148.53 39.96 148.5 10.23"/><path class="cls-2" d="m104.97,44.11l-4.22-9.92h-15.07l-4.14,9.9h-5.73S92.32,5.24,92.32,5.24h2.12l16.51,38.86h-5.98Zm-9.97-23.92c-.16-.4-.4-1.01-.7-1.83-.31-.82-.62-1.77-.95-2.85-.62,1.84-1.21,3.4-1.79,4.67l-3.85,9.38h11.14l-3.85-9.37Z"/><path class="cls-2" d="m170.61,44.1h-11.9V5.78h11.9c5.75,0,10.67,1.71,14.78,5.14,4.11,3.42,6.16,8.1,6.16,14.02s-2.04,10.6-6.13,14.02c-4.09,3.42-9.02,5.13-14.81,5.13Zm-1.03-33.39h-5.04v28.47h5.04c4.65,0,8.48-1.21,11.47-3.63,2.99-2.42,4.49-5.96,4.49-10.6s-1.5-8.18-4.49-10.6c-3-2.42-6.82-3.63-11.47-3.63Z"/><path class="cls-2" d="m198.83,44.1V5.78h5.89v38.32h-5.89Z"/><path class="cls-2" d="m246.48,44.94l-18.15-19.64c-1.42-1.52-2.9-3.17-4.46-4.96-1.56-1.78-3.04-3.49-4.46-5.14-.04.68-.06,1.39-.06,2.13v26.76h-5.83V5.78h4.08s16.64,18,16.64,18c1.29,1.45,2.9,3.27,4.84,5.48s3.03,3.45,3.27,3.73c.04-.56.06-1.19.06-1.89V5.78h5.83v39.16h-1.76Z"/><path class="cls-2" d="m275.12,44.76c-5.5,0-10.3-1.83-14.38-5.49-4.09-3.66-6.13-8.47-6.13-14.42s2.05-10.65,6.16-14.33c4.11-3.68,8.89-5.52,14.35-5.52s10.3,1.83,14.38,5.49c4.09,3.66,6.13,8.45,6.13,14.36s-2.04,10.77-6.13,14.42c-4.09,3.66-8.88,5.49-14.38,5.49Zm0-34.72c-3.84,0-7.23,1.34-10.17,4.02s-4.4,6.27-4.4,10.79,1.46,8.12,4.37,10.82c2.91,2.7,6.31,4.04,10.2,4.04s7.18-1.35,10.14-4.04c2.95-2.7,4.43-6.3,4.43-10.82s-1.47-8.11-4.4-10.79-6.32-4.02-10.17-4.02Z"/><polygon class="cls-3" points="18.79 42.29 4.33 42.29 11.56 29.77 18.79 17.24 26.02 29.77 33.24 42.29 18.79 42.29"/><polygon class="cls-3" points="41.88 42.29 20.36 42.29 31.12 23.64 41.88 5 52.65 23.64 63.41 42.29 41.88 42.29"/></svg>