<svg xmlns="http://www.w3.org/2000/svg" viewBox="0 0 295.2 44.44"><defs><style>.cls-1{fill:#989898;}.cls-2{fill:#fff;}.cls-3,.cls-4{fill:none;stroke:#fff;stroke-miterlimit:10;}.cls-3{stroke-width:2px;}.cls-4{stroke-width:4.5px;}</style></defs><g id="Capa_2" data-name="Capa 2"><g id="Capa_1-2" data-name="Capa 1"><circle class="cls-1" cx="133.05" cy="9.73" r="4.27"/><circle class="cls-1" cx="133.08" cy="39.46" r="4.27"/><circle class="cls-2" cx="118" cy="9.73" r="4.27"/><circle class="cls-2" cx="148.07" cy="9.73" r="4.27"/><circle class="cls-2" cx="118.02" cy="24.6" r="4.27"/><circle class="cls-2" cx="133.06" cy="24.6" r="4.27"/><circle class="cls-2" cx="148.08" cy="24.6" r="4.27"/><circle class="cls-2" cx="118.03" cy="39.46" r="4.27"/><circle class="cls-2" cx="148.1" cy="39.46" r="4.27"/><polyline class="cls-3" points="118.03 39.46 118 9.73 148.1 39.46 148.07 9.73"/><path class="cls-2" d="M104.53,43.61l-4.21-9.92H85.25l-4.14,9.9H75.38L91.88,4.74H94L110.52,43.6Zm-10-23.92c-.17-.4-.4-1-.71-1.83s-.62-1.77-.94-2.85c-.62,1.84-1.21,3.4-1.79,4.68l-3.85,9.37H98.42Z"/><path class="cls-2" d="M170.18,43.6h-11.9V5.28h11.9A22.32,22.32,0,0,1,185,10.42q6.15,5.13,6.16,14t-6.13,14A22.29,22.29,0,0,1,170.18,43.6Zm-1-33.39h-5V38.67h5A17.69,17.69,0,0,0,180.62,35q4.49-3.63,4.49-10.6t-4.49-10.6A17.69,17.69,0,0,0,169.14,10.21Z"/><path class="cls-2" d="M198.4,43.6V5.28h5.89V43.6Z"/><path class="cls-2" d="M246,44.44,227.89,24.8q-2.12-2.28-4.46-4.95L219,14.71q-.06,1-.06,2.13V43.6h-5.82V5.28h4.08l16.64,18q1.94,2.16,4.84,5.48l3.26,3.73c0-.56.07-1.19.07-1.89V5.28h5.82V44.44Z"/><path class="cls-2" d="M274.69,44.26a20.88,20.88,0,0,1-14.39-5.49q-6.12-5.48-6.13-14.42A18.36,18.36,0,0,1,260.33,10a21.51,21.51,0,0,1,28.74,0,18.34,18.34,0,0,1,6.13,14.36q0,8.94-6.13,14.42A20.87,20.87,0,0,1,274.69,44.26Zm0-34.72a14.63,14.63,0,0,0-10.17,4,13.92,13.92,0,0,0-4.4,10.79,14,14,0,0,0,4.37,10.82,14.81,14.81,0,0,0,20.33,0,13.92,13.92,0,0,0,4.43-10.82q0-6.76-4.4-10.79A14.61,14.61,0,0,0,274.69,9.54Z"/><polygon class="cls-4" points="18.35 41.78 3.9 41.78 11.13 29.27 18.35 16.75 25.58 29.27 32.81 41.78 18.35 41.78"/><polygon class="cls-4" points="41.45 41.78 19.92 41.78 30.69 23.14 41.45 4.5 52.21 23.14 62.98 41.78 41.45 41.78"/></g></g></svg>